# xmcd CD database file
#
# Track frame offsets:
#	150
#	17715
#	34808
#	47203
#	61475
#	87443
#	105183
#	118863
#	139460
#	150635
#	163770
#	184825
#
# Disc length: 2835 seconds
#
# Revision: 7
# Processed by: cddbd v1.5.2PL0 Copyright (c) Steve Scherf et al.
# Submitted via: CDex 1.74
#
DISCID=a30b110c
DTITLE=Tractors, The - The Tractors
DYEAR=1994
DGENRE=Country
TTITLE0=The Tulsa Shuffle (Ft. Bonnie Raitt, JJ Cale Leon Russell)
TTITLE1=Fallin' Apart (Ft. Ed Richmond)
TTITLE2=Thirty Days
TTITLE3=I've Had Enough
TTITLE4=The Little Man (Ft. Bonnie Raitt)
TTITLE5=Baby Likes To Rock It (Ft. James Burton)
TTITLE6=Badly Bent (Ft. Steve Bagsby, Curly Lewis)
TTITLE7=The Blue Collar Rock (Ft. Ry Cooder
TTITLE8=Doreen (Ft. Eldon Shamblin)
TTITLE9=Settin' The Woods On Fire
TTITLE10=Tryin' To Get To New Orleans
TTITLE11=The Tulsa Shuffle (Revisited) (Ft. Bonnie Raitt, JJ Cale Leon Russell)
EXTD=YEAR: 1994
EXTT0=
EXTT1=
EXTT2=
EXTT3=
EXTT4=
EXTT5=
EXTT6=
EXTT7=
EXTT8=
EXTT9=
EXTT10=
EXTT11=
PLAYORDER=
